<svg id="svg2" xmlns="http://www.w3.org/2000/svg" viewBox="0 0 152.81 122.2" width="34px" height="28px"><defs><style>.cls-1{fill:#d20515;}.cls-2{fill:#fff;}</style></defs><title>画板 1</title><rect class="cls-1" width="152.81" height="122.2"/><path class="cls-2" d="M125.89,64.4c0,.26-.26.52-.79.79l-.26.26v.27c0,.26,0,.26-.27.52l-.53.27h-.52v-.27l-.53.27v.26c0,.27,0,.27-.27.53l-.52.26h-.53V67.3c-1.85,1.06-4.22,1.85-6.34,2.9v.27c0,.26,0,.26-.26.53l-.53.26H114l-.26-.26-.79.26.26.26c0,.27,0,.27-.26.53l-.53.26h-.53l-.26-.26c-1.06.53-2.11.53-2.9-1-.27-.8-.27-2.38-.53-3.17a.94.94,0,0,0-.79-.53c-10-1.85-13.2.26-19.8-1.32-2.11-.53-3.16-2.37-5.54-2.37-5.28-.27-6.86,0-12.93-.27a4.06,4.06,0,0,0-.27,1.06H48.3L51.46,66l1.06,9a5.81,5.81,0,0,1-1.06.27c.27,1.85.27,4.22.53,6.33,0,1.85.27,4,.27,5.28a4.82,4.82,0,0,1-.53,2.38,3.09,3.09,0,0,1-1.59,1.58,18.38,18.38,0,0,1-1.84,1.32l-2.64,1.32c0,.26.26.53.26.79-12.4,6.07-28,7.92-33,17.68-.53,1.06-2.64.53-2.64-.79v-1.85H10c-.26,0-.26-.26-.26-.52v-.53a.91.91,0,0,1,.26-.53h.26c0-.53.27-1.05.27-1.58h-.27c-.26,0-.26-.27,0-.53l.27-.53c0-.26.26-.53.52-.26h.27c.79-2.11,2.64-2.91,3.43-5h0c-.26,0-.26-.26,0-.52l-.26-.53c0-.27.26-.53.52-.27h.27c0-.26.26-.53.53-.79h-.27c-.26,0-.26-.26,0-.53l.27-.52c.26-.27.26-.27.52-.27h0l.27-.26a2.39,2.39,0,0,1,2.64,0,5.55,5.55,0,0,0,6.86-.53C30.88,91.05,36.69,85.25,40.91,85c-1.06-2.37-3.17-7.65-3.43-9.76L36.16,75c-.79-1.58-2.64-9-3.17-14.78,0,0-.53-6.07,0-8.18a4,4,0,0,0-1.06.53c-.79-1.85,1.85-18.21,4.23-23l4-1.58c-.53,0-3.17-.27-10.56-.8-4.22,3.7-8.71,7.66-11.35,9.77-.53.26-1.06,2.64-1.06,2.64a14.21,14.21,0,0,1-2.37,1.85c-1.58,1.05-5,1.84-5.81.52-.26-.26-.26-.52,0-.52.53-.53,2.64-1.59,3.43-2.91C11.35,39.06,10,39.85,9,39.59c-.52,0-.79-1.06,0-1.32a8.59,8.59,0,0,0,3.7-2.11,3.8,3.8,0,0,1,3.43-2.11s6.86-9,10.82-13.2c1.06-1.06,3.17-.79,3.17-.79l.26-1.32s13.72-1.58,20.32.53c-.26-4,1.59-9,7.66-9,3.16,0,7.65,2.91,8.44,6.07.27,1.06-.53,1.85-.79,3.17-.53,2.11.26,4.22,0,4.75s-.79.53-1.32,1.32S63.34,28,63.34,28l-.79,1.84-4.22-.26C56.74,33,53.58,39.85,52.52,46.71h0C56,47,71.26,49.09,71.26,49.09l.26,1.32a46.8,46.8,0,0,1,11.62,3.17c1,.26,4.22-.27,6.07.79l.52-.53C96.6,56,102.4,59.65,109,61.23l4.22,1.06c2.38.52,4,.52,5.28.79a34.34,34.34,0,0,0,4.75.26c.79-.26,2.38-.53,2.64,1.06m10-20.85A8.45,8.45,0,1,0,144.37,52,8.5,8.5,0,0,0,135.92,43.55Z"/></svg>