<?xml version="1.0" encoding="iso-8859-1"?>
<!-- Generator: Adobe Illustrator 19.0.0, SVG Export Plug-In . SVG Version: 6.00 Build 0)  -->
<svg version="1.1" width="62px" height="62px" fill="#fff" id="Capa_1" xmlns="http://www.w3.org/2000/svg" xmlns:xlink="http://www.w3.org/1999/xlink" x="0px" y="0px"
	 viewBox="0 0 512 512" style="enable-background:new 0 0 512 512;" xml:space="preserve">
<g>
	<g>
		<path d="M432.369,80.881h-58.477v-13.38c0-5.523-4.477-10-10-10H310.42c0.145-2.666,0.095-5.353-0.151-8.05
			c-2.397-26.286-24.064-47.487-50.4-49.315c-15.296-1.063-29.875,4.091-41.041,14.51c-11.012,10.274-17.328,24.801-17.328,39.856
			c0,1.002,0.027,2.002,0.082,3h-53.476c-5.523,0-10,4.477-10,10v13.38H79.631c-5.523,0-10,4.477-10,10V502c0,5.523,4.477,10,10,10
			h352.739c5.523,0,10-4.477,10-10V90.881C442.369,85.358,437.892,80.881,432.369,80.881z M158.107,77.501h55.328
			c3.169,0,6.151-1.502,8.037-4.049c1.886-2.547,2.453-5.838,1.527-8.869c-0.995-3.26-1.499-6.652-1.499-10.082
			c0-9.67,3.896-18.631,10.972-25.232c7.068-6.594,16.311-9.854,26.013-9.181c16.652,1.156,30.353,14.56,31.868,31.179
			c0.414,4.54-0.041,9.02-1.352,13.317c-0.925,3.031-0.357,6.321,1.528,8.868s4.868,4.049,8.037,4.049h55.328v25.803
			c0,9.482-7.714,17.197-17.197,17.197H175.304c-9.482,0-17.197-7.714-17.197-17.197V77.501z M382.37,140.501v311.498H129.63
			V140.501H382.37z M422.37,491.999H89.63V100.881h48.477v2.423c0,6.202,1.534,12.05,4.23,17.197H119.63c-5.523,0-10,4.477-10,10
			v331.498c0,5.523,4.477,10,10,10H392.37c5.523,0,10-4.477,10-10V130.501c0-5.523-4.477-10-10-10h-22.707
			c2.696-5.147,4.23-10.995,4.23-17.197v-2.423h48.477V491.999z"/>
	</g>
</g>
<g>
	<g>
		<path d="M344.619,368.04c-0.13-0.64-0.32-1.27-0.57-1.87c-0.25-0.61-0.56-1.19-0.92-1.73c-0.36-0.55-0.78-1.06-1.24-1.52
			c-0.46-0.46-0.97-0.88-1.52-1.24c-0.54-0.36-1.12-0.67-1.73-0.92c-0.6-0.25-1.23-0.44-1.87-0.57c-1.29-0.26-2.62-0.26-3.91,0
			c-0.63,0.13-1.26,0.32-1.87,0.57c-0.6,0.25-1.18,0.56-1.72,0.92c-0.55,0.36-1.06,0.78-1.52,1.24c-0.46,0.46-0.88,0.97-1.25,1.52
			c-0.36,0.54-0.67,1.12-0.92,1.73c-0.25,0.6-0.44,1.23-0.57,1.87c-0.13,0.64-0.19,1.3-0.19,1.95s0.06,1.31,0.19,1.96
			c0.13,0.63,0.32,1.26,0.57,1.87c0.25,0.6,0.56,1.18,0.92,1.72c0.37,0.55,0.79,1.06,1.25,1.52c0.46,0.46,0.97,0.88,1.52,1.25
			c0.54,0.36,1.12,0.67,1.72,0.92c0.61,0.25,1.24,0.44,1.87,0.57c0.65,0.13,1.31,0.19,1.96,0.19s1.31-0.06,1.95-0.19
			s1.27-0.32,1.87-0.57c0.61-0.25,1.19-0.56,1.73-0.92c0.55-0.37,1.06-0.79,1.52-1.25c0.46-0.46,0.88-0.97,1.24-1.52
			c0.36-0.54,0.67-1.12,0.92-1.72c0.25-0.61,0.44-1.24,0.57-1.87c0.13-0.65,0.2-1.31,0.2-1.96
			C344.819,369.34,344.749,368.68,344.619,368.04z"/>
	</g>
</g>
<g>
	<g>
		<path d="M298.499,394.5h-85c-5.523,0-10,4.477-10,10c0,5.523,4.477,10,10,10h85c5.523,0,10-4.477,10-10
			C308.499,398.977,304.022,394.5,298.499,394.5z"/>
	</g>
</g>
<g>
	<g>
		<path d="M352.55,224.145l-40.18-40.18c-1.875-1.875-4.419-2.929-7.071-2.929s-5.196,1.054-7.071,2.929L169.006,313.186
			l-4.181,4.181c-1.589,1.589-2.597,3.667-2.86,5.899l-5.375,45.555c-0.002,0.02-0.001,0.041-0.004,0.061
			c-0.033,0.297-0.048,0.599-0.055,0.903c0,0.063-0.008,0.127-0.008,0.191c0,0.006-0.001,0.011-0.001,0.017
			c0,0.361,0.021,0.717,0.059,1.068c0.008,0.07,0.023,0.138,0.032,0.208c0.037,0.291,0.083,0.579,0.144,0.862
			c0.02,0.09,0.047,0.178,0.069,0.268c0.064,0.26,0.135,0.517,0.219,0.769c0.033,0.098,0.07,0.194,0.106,0.29
			c0.088,0.238,0.183,0.472,0.288,0.701c0.047,0.102,0.096,0.203,0.146,0.303c0.11,0.219,0.227,0.432,0.352,0.641
			c0.06,0.1,0.118,0.201,0.182,0.299c0.136,0.211,0.282,0.413,0.433,0.613c0.064,0.085,0.124,0.173,0.191,0.256
			c0.429,0.531,0.908,1.018,1.434,1.451c0.069,0.057,0.144,0.105,0.214,0.16c0.188,0.146,0.376,0.292,0.574,0.424
			c0.068,0.045,0.139,0.083,0.208,0.126c0.208,0.132,0.417,0.262,0.635,0.379c0.054,0.029,0.111,0.052,0.166,0.08
			c0.236,0.121,0.474,0.237,0.72,0.339c0.045,0.018,0.091,0.032,0.136,0.05c0.257,0.102,0.516,0.198,0.783,0.28
			c0.051,0.015,0.103,0.025,0.154,0.04c0.26,0.074,0.522,0.145,0.791,0.198c0.099,0.02,0.2,0.029,0.3,0.046
			c0.221,0.037,0.442,0.077,0.668,0.099c0.33,0.033,0.662,0.05,0.996,0.05h133.66c5.523,0,10-4.477,10-10c0-5.523-4.477-10-10-10
			h-69.338L352.55,238.288C356.455,234.383,356.455,228.051,352.55,224.145z M177.938,358.576l2.355-19.96l17.605,17.605
			L177.938,358.576z M216.257,346.296l-26.038-26.039l85.396-85.394l26.038,26.038L216.257,346.296z M315.794,246.757
			l-26.038-26.038l15.542-15.542l26.038,26.038L315.794,246.757z"/>
	</g>
</g>
<g>
</g>
<g>
</g>
<g>
</g>
<g>
</g>
<g>
</g>
<g>
</g>
<g>
</g>
<g>
</g>
<g>
</g>
<g>
</g>
<g>
</g>
<g>
</g>
<g>
</g>
<g>
</g>
<g>
</g>
</svg>
