<?xml version="1.0" encoding="utf-8"?>
<!-- Generator: Adobe Illustrator 24.0.2, SVG Export Plug-In . SVG Version: 6.00 Build 0)  -->
<svg version="1.1" width="62px" height="62px" fill="#fff" id="Layer_1" xmlns="http://www.w3.org/2000/svg" xmlns:xlink="http://www.w3.org/1999/xlink" x="0px" y="0px"
	 viewBox="0 0 512 512" style="enable-background:new 0 0 512 512;" xml:space="preserve">
<style type="text/css">
	.st0{fill:none;stroke:#FFFFFF;stroke-width:19.9108;stroke-linejoin:round;stroke-miterlimit:10;}
	.st1{fill:none;stroke:#FFFFFF;stroke-width:18.3782;stroke-linejoin:round;stroke-miterlimit:10;}
	.st2{fill:#FFFFFF;}
</style>
<g>
	<path class="st0" d="M381.5,240H502v26.7c-0.5,0-0.9,0-1.4,0c-16.3,0-29.5,11.4-29.5,25.5s13.2,25.5,29.5,25.5c0.5,0,0.9,0,1.4,0
		v27.8c-0.5,0-0.9,0-1.4,0c-16.3,0-29.5,11.4-29.5,25.5s13.2,25.5,29.5,25.5c0.5,0,0.9,0,1.4,0v27.8c-0.5,0-0.9,0-1.4,0
		c-16.3,0-29.5,11.4-29.5,25.5s13.2,25.5,29.5,25.5c0.5,0,0.9,0,1.4,0V502H10v-26.7c16.3,0,29.5-11.4,29.5-25.5S26.3,424.3,10,424.3
		v-27.8c16.3,0,29.5-11.4,29.5-25.5S26.3,345.5,10,345.5v-27.8c16.3,0,29.5-11.4,29.5-25.5S26.3,266.7,10,266.7V240h141.2"/>
	<rect x="81" y="283.7" class="st1" width="350" height="174.7"/>
</g>
<g>
	<path class="st0" d="M131.1,283.7l20.1-43.7l10.4-22.6c12.7,7.2,26,12.7,40.1,16.5c14,3.8,27.6,5.6,40.9,5.6
		c11.8,0,21.4-2.1,28.8-6.3s11.1-10,11.1-17.6c0-7.2-3.3-12.6-10-16.2c-6.7-3.6-18.6-5.4-35.9-5.4h-87.9l15.1-184h201.3v77.1H247.8
		l-2.2,29.9h15.6c42.4,0,73.7,8.9,93.7,26.6c20.1,17.8,30.1,41.1,30.1,69.9c0,9.2-1.1,18-3.5,26.5c-2.5,9.1-6.3,17.8-11.5,26.1
		c-3.9,6.3-8.7,12.2-14.3,17.6"/>
</g>
<g>
	<path class="st2" d="M113.1,400.6v-59.3c0-2.2,1.8-4,4-4h44.2c2.2,0,4,1.8,4,4v9.2c0,2.2-1.8,4-4,4h-28.2V365h24.5c2.2,0,4,1.8,4,4
		v9.2c0,2.2-1.8,4-4,4h-24.5v18.4c0,2.2-1.8,4-4,4h-12C114.9,404.6,113.1,402.8,113.1,400.6z"/>
	<path class="st2" d="M226.2,402.9l-10.7-15.4h-8.7v13.1c0,2.2-1.8,4-4,4h-12c-2.2,0-4-1.8-4-4v-59.3c0-2.2,1.8-4,4-4h25.5
		c5.8,0,11,1,15.4,3c4.5,2,8,5,10.5,8.8s3.7,8.3,3.7,13.4s-1.3,9.6-3.8,13.4c-1.9,2.9-4.4,5.2-7.5,7.1l15.1,21.6h-20.2
		C228.2,404.6,226.9,404,226.2,402.9z M215.5,370.4c3.6,0,6.2-0.7,7.9-2.1c1.6-1.3,2.3-3.1,2.3-5.7s-0.7-4.4-2.3-5.7
		c-1.7-1.4-4.3-2.1-7.9-2.1h-8.7v15.7L215.5,370.4L215.5,370.4z"/>
	<path class="st2" d="M269,400.6v-59.3c0-2.2,1.8-4,4-4h44.2c2.2,0,4,1.8,4,4v9.2c0,2.2-1.8,4-4,4h-28.3v7.6h24.6c2.2,0,4,1.8,4,4
		v8.8c0,2.2-1.8,4-4,4h-24.6v8.5h29.5c2.2,0,4,1.8,4,4v9.2c0,2.2-1.8,4-4,4H273C270.8,404.6,269,402.8,269,400.6z"/>
	<path class="st2" d="M345.5,400.6v-59.3c0-2.2,1.8-4,4-4h44.2c2.2,0,4,1.8,4,4v9.2c0,2.2-1.8,4-4,4h-28.3v7.6H390c2.2,0,4,1.8,4,4
		v8.8c0,2.2-1.8,4-4,4h-24.6v8.5h29.5c2.2,0,4,1.8,4,4v9.2c0,2.2-1.8,4-4,4h-45.4C347.3,404.6,345.5,402.8,345.5,400.6z"/>
</g>
</svg>
