<svg xmlns="http://www.w3.org/2000/svg" width="21" height="14.031" viewBox="0 0 21 14.031">
  <defs>
    <style>
      .cls-1 {
        fill: #003266;
        fill-rule: evenodd;
      }
    </style>
  </defs>
  <path class="cls-1" d="M4265.67,737.783v-2.444h-1.66v2.444h-2.33v1.742h2.33v2.444h1.66v-2.444H4268v-1.742h-2.33Zm-11.99-.185v2.794h3.57a3.319,3.319,0,0,1-.73,1.581,3.831,3.831,0,0,1-5.63-.027,4.4,4.4,0,0,1,.04-5.934,3.648,3.648,0,0,1,5.28-.142l-0.01,0,1.95-2.041a6.43,6.43,0,0,0-9.16.178,7.259,7.259,0,0,0-.07,9.909,6.522,6.522,0,0,0,9.51.045,7.827,7.827,0,0,0,1.54-6.366h-6.29Z" transform="translate(-4247 -731.969)"/>
</svg>
