<svg xmlns="http://www.w3.org/2000/svg" width="16" height="14" viewBox="0 0 16 14">
  <defs>
    <style>
      .cls-1 {
        fill: #9ea7b2;
        fill-rule: evenodd;
      }
    </style>
  </defs>
  <path id="Forma_1" data-name="Forma 1" class="cls-1" d="M4196,382h10a3,3,0,0,1,3,3v8a3,3,0,0,1-3,3h-10a3,3,0,0,1-3-3v-8A3,3,0,0,1,4196,382Zm0,2h10a1,1,0,0,1,1,1v8a1,1,0,0,1-1,1h-10a1,1,0,0,1-1-1v-8A1,1,0,0,1,4196,384Zm2.84,6.107-4.73-4.735a2,2,0,0,1,1.52-1.335l4.64,4.644a1.015,1.015,0,0,0,1.43,0l4.64-4.646a1.988,1.988,0,0,1,1.54,1.313l-4.76,4.759A3.028,3.028,0,0,1,4198.84,390.107Z" transform="translate(-4193 -382)"/>
</svg>
