<svg id="Слой_1" data-name="Слой 1" xmlns="http://www.w3.org/2000/svg" xmlns:xlink="http://www.w3.org/1999/xlink" viewBox="0 0 234.03 288.99"><defs><style>.cls-1{fill:none;}.cls-2{clip-path:url(#clip-path);}.cls-3{fill:#fff;}.cls-4{fill:#e31018;}</style><clipPath id="clip-path"><rect class="cls-1" width="234.03" height="288.99"/></clipPath></defs><title>Монтажная область 1</title><g class="cls-2"><path class="cls-3" d="M24.83,0H209.21A24.83,24.83,0,0,1,234,24.83V264.18A24.81,24.81,0,0,1,209.21,289H24.83A24.82,24.82,0,0,1,0,264.18V24.83A24.83,24.83,0,0,1,24.83,0"/><path class="cls-3" d="M24.83,3.55H209.2a21.27,21.27,0,0,1,21.28,21.27V264.18a21.27,21.27,0,0,1-21.28,21.27H24.83A21.27,21.27,0,0,1,3.55,264.18V24.82A21.27,21.27,0,0,1,24.83,3.55"/><path class="cls-4" d="M216.3,114.22v27.62a12.41,12.41,0,0,1-12.41,12.41H30.14a12.41,12.41,0,0,1-12.41-12.41V30.14A12.41,12.41,0,0,1,30.14,17.73H203.89A12.41,12.41,0,0,1,216.3,30.14V56.72a12.38,12.38,0,1,0,0,17.2ZM67,114.22c.63,1.84,1.44,4.19,2.41,7-4.17-2.13-17.6,3.87-22.39,5.48a23.62,23.62,0,0,0-4.28-3.19,4.4,4.4,0,0,0-3.84.75c-.28-.18-.64-.66-1.25.23-.39.58-.2.71.21,1-.18.29-.51.86-.68,1.22-.33-.1-.6-.47-1.07.42s0,1,.44,1.2c-1.35,2.74-3.58,4.41-4.93,7.24-.43-.17-.74-.37-1.17.75-.31.79,0,.93.47,1.17a21.33,21.33,0,0,0-.52,2.25.68.68,0,0,0-.9.58c-.15,1.12,0,1.28.68,1.36,0,.48,0,1,0,1.6.38,1.65,1.85,2,2.71,1.32,4.6-3.51,8.14-5.81,10.74-7.68,6.83-.64,25.52-1.9,31-2.38,2.71.18,10.79-6.81,10.88-9.19a92.88,92.88,0,0,0-.26-11.11c-.21-2.9-.5-6.14-.78-10.79l1.27-.4.11-9.73,2.57.13a5.26,5.26,0,0,1,.29-1.1c6.62.72,19.08,2.69,27.38,2.11a4.9,4.9,0,0,1,4,1.63c2.13,1.78,17.59,3.41,30.51,3.49a7.93,7.93,0,0,0,5.09,5.14c.28.17.5,0,1.23-.35.41.44.65.67,1.41.27.61-.32.59-.61.39-1.1l.61-.39c.39.41.74.62,1.32.25s.64-.53.22-1.16c1.31-.86,8.88-6.53,8.88-6.53.28.28.44.43.6.4a2.76,2.76,0,0,0,1.1-.86c.09-.21-.12-.47-.36-.76l1.3-1c.23.29.42.46.58.41a1.54,1.54,0,0,0,.79-.75c.09-.18-.14-.48-.33-.75l.85-1c-.33-1.51-1.82-1.33-3.13-1.25-3.25.25-12.54,1.64-16.09,1.48-6.64-2.21-31.86-11.64-33.35-12.19a11.51,11.51,0,0,0-4.76-.72c-6.8-3.65-19.66-6.44-20.83-6.76-.34-.1-.21-.65-.31-1.07a64.52,64.52,0,0,0-10.14-1,110.38,110.38,0,0,0,2.08-16.21,4.39,4.39,0,0,0,2.09.77c1.59.18,3.26-1,5.28-1.81,1.05-.43,1.2.2,1.81-.18,1.35-.84,2-3.28,4-4.76,1.26-1,2.57-.7,3.11-1.86.9-1.93.46-3.3.09-5.36-.57-3.09-1.24-5.21-3.71-7.17a8.79,8.79,0,0,0-6-2.14c-2.93,0-7.84,1.4-10.52,8.17a37.5,37.5,0,0,0-7.36-3.74c-5.81-2.08-24.13,2-26.18,2.89a12.19,12.19,0,0,1,.16,1.8s-2.24.08-3.12,1.35c-4.31,6.25-9.25,15-9.25,15A5.52,5.52,0,0,0,34.3,60c-.87,1.84-1.68,2.07-3.51,3.25-1.26.42-.8,1.81-.08,1.76a7.48,7.48,0,0,0,3.85-1.85c-.73,2.23-3.34,3.79-3.42,4.69.27,1.21,3.08,2.88,6.74.1a13.74,13.74,0,0,0,3.22-2.81c.46-.55.7-3,1.22-4.72.82-.38,7-6,11.45-10.51,0,0,9.12-1.85,13.47-2.53,0,0-3.38,1.61-6.75,2.77-5.63,20.92-5.19,30.14-2.24,31.09-2.3,4.14,3,21.11,5.8,28.23l1.37.24L67,114.22"/><path d="M17.73,198.52H35.58c7.13,0,11-1.11,11-9.36,0-4.22-.85-7.22-5.83-7.53v-.37c4.44-.71,5.3-3.49,5.3-7.75,0-7.35-4-8.61-10.63-8.61H17.73Zm9-26.26h7.53c2.51.08,2.83.84,2.83,2.86,0,2.69-.76,3.23-3.9,3.23H26.7Zm0,12.33h7c2.91,0,4,.4,4,3.18s-1.22,3.4-4.13,3.4H26.7v-6.58"/><path d="M70.94,164.9v21.84c0,3.94-1.31,4.25-5.11,4.25s-5.93,0-5.93-3.85V164.9h-9v22.42c0,8.07,1.43,11.48,14.89,11.48,9.86,0,14.08-2.52,14.08-11.48V164.9h-9"/><polygon points="93.84 172.71 94.2 172.71 103.71 198.52 118.99 198.52 118.99 164.9 110.03 164.9 110.57 190.73 110.2 190.73 100.57 164.9 85.41 164.9 85.41 198.52 94.38 198.52 93.84 172.71"/><path d="M124.05,198.52H142.3c9.37,0,12.33-4.34,12.33-13.53v-7c0-9.55-4.17-13-13.54-13h-17Zm9-25.81h7.84c3.14,0,4.54.89,4.54,5.24v7c0,3.54-1.22,5.74-4.54,5.74H133v-18"/><polygon points="168.29 172.26 183.59 172.26 183.59 164.9 159.33 164.9 159.33 198.52 183.9 198.52 183.9 191.17 168.29 191.17 168.29 184.63 182.64 184.63 182.64 178.4 168.29 178.4 168.29 172.26"/><path d="M201.2,177.81c-2.38-.17-3.68-.27-3.68-3,0-1.88.4-2.87,5.24-2.87,3.59,0,5,0,5,3.46h8.61v-1.39c0-9.29-6.27-9.42-13.63-9.42-8.78,0-14.21.63-14.21,10.27s4.84,9.6,13.14,10.18l2,.13c4.22.27,4.71.22,4.71,3.14s-1.39,3.09-5.61,3.09c-4.39,0-5.64-.36-5.64-3.85h-8.61c0,11,5.69,11.21,14.25,11.21,14.8,0,14.57-5.47,14.57-11,0-7.71-2.46-9-12.41-9.69l-3.72-.27"/><polygon points="35.22 205.69 17.73 205.69 17.73 271.26 60.12 271.26 60.12 256.05 35.22 256.05 35.22 205.69"/><rect x="67.83" y="205.69" width="17.49" height="65.58"/><path d="M153.42,226.5c0-20.81-12.07-20.9-29-20.9-19.23,0-31.13,3.23-31.13,24.91v17c0,21.25,10.5,24.74,31.13,24.74,23.43,0,29-4,29-26.14V234.62H123.6v12.16h12.07c0,9.1-2.36,11.1-11.28,11.1-9.09,0-13.11-1.22-13.11-12.85V234.36c.17-10.57.52-14.42,13.11-14.42,5.25,0,10.93-.09,11.28,6.56h17.75"/><path d="M199.64,260l3.41,11.27h17.84L201,205.69H174.37L154.7,271.26h18.19L176.12,260Zm-3.5-12.78H179.88l8-28.41H188l8.13,28.41"/></g></svg>