<svg xmlns="http://www.w3.org/2000/svg" width="20" height="16" viewBox="0 0 20 16">
  <defs>
    <style>
      .cls-1 {
        fill: #9ea7b2;
        fill-rule: evenodd;
      }
    </style>
  </defs>
  <path id="Ellipse_2_copy_2" data-name="Ellipse 2 copy 2" class="cls-1" d="M4191,435h20v16h-20V435Zm2,2h16v12h-16V437Zm0,5a4.988,4.988,0,0,1-1-.1v-2.083a2.957,2.957,0,0,0,1,.184,2.98,2.98,0,0,0,2.82-4h2.08a5.468,5.468,0,0,1,.1,1A5,5,0,0,1,4193,442Zm16,0a4.988,4.988,0,0,0,1-.1v-2.083a2.957,2.957,0,0,1-1,.184,2.98,2.98,0,0,1-2.82-4h-2.08a5.468,5.468,0,0,0-.1,1A5,5,0,0,0,4209,442Zm-16,2a5.062,5.062,0,0,0-1,.1v2.084a2.957,2.957,0,0,1,1-.184,2.98,2.98,0,0,1,2.82,4h2.08a5.477,5.477,0,0,0,.1-1A5,5,0,0,0,4193,444Zm16,0a5.062,5.062,0,0,1,1,.1v2.084a2.957,2.957,0,0,0-1-.184,2.98,2.98,0,0,0-2.82,4h-2.08a5.477,5.477,0,0,1-.1-1A5,5,0,0,1,4209,444Zm-8-3a2,2,0,1,1-2,2A2,2,0,0,1,4201,441Z" transform="translate(-4191 -435)"/>
</svg>
