<svg xmlns="http://www.w3.org/2000/svg" width="10" height="18" viewBox="0 0 10 18">
  <defs>
    <style>
      .cls-1 {
        fill: #003266;
        fill-rule: evenodd;
      }
    </style>
  </defs>
  <path class="cls-1" d="M4361,739.288a4.648,4.648,0,1,0-4.46-4.643A4.558,4.558,0,0,0,4361,739.288Zm0-6.566a1.924,1.924,0,1,1-1.84,1.923A1.881,1.881,0,0,1,4361,732.722Zm1.8,10.356a8.216,8.216,0,0,0,2.59-1.117,1.4,1.4,0,0,0,.41-1.877,1.273,1.273,0,0,0-1.8-.428,5.463,5.463,0,0,1-6,0,1.273,1.273,0,0,0-1.8.428,1.4,1.4,0,0,0,.41,1.877,8.119,8.119,0,0,0,2.59,1.117l-2.49,2.6a1.4,1.4,0,0,0,0,1.925,1.262,1.262,0,0,0,1.84,0l2.45-2.552,2.45,2.552a1.262,1.262,0,0,0,1.84,0,1.4,1.4,0,0,0,0-1.925Z" transform="translate(-4356 -730)"/>
</svg>
