<svg id="Capa_1" width="62px" height="62px" fill="#fff" enable-background="new 0 0 512 512"  viewBox="0 0 512 512" xmlns="http://www.w3.org/2000/svg"><g><g><path d="m87.5 256.09v4.461c-10.763 1.118-19.184 10.24-19.184 21.294v9.281c0 11.806 9.605 21.411 21.411 21.411h12.988c.778 0 1.411.633 1.411 1.411v9.14c0 .778-.633 1.411-1.411 1.411h-24.398c-5.523 0-10 4.477-10 10s4.477 10 10 10h7.905v4.377c0 5.523 4.477 10 10 10s10-4.477 10-10v-4.69c10.14-1.682 17.904-10.489 17.904-21.098v-9.14c0-11.806-9.605-21.411-21.411-21.411h-12.987c-.778 0-1.411-.633-1.411-1.411v-9.281c0-.778.633-1.411 1.411-1.411h24.398c5.523 0 10-4.477 10-10s-4.477-10-10-10h-6.626v-4.344c0-5.523-4.477-10-10-10s-10 4.477-10 10z"/><path d="m386.028 302.223c2.559 0 5.119-.977 7.071-2.929l60.388-60.387c3.905-3.905 3.905-10.237 0-14.142-3.906-3.905-10.237-3.905-14.143 0l-60.388 60.387c-3.905 3.905-3.905 10.237 0 14.143 1.954 1.952 4.512 2.928 7.072 2.928z"/><path d="m380.12 241.42c3.311 7.947 14.879 8.096 18.371.223 1.725-3.889.746-8.598-2.415-11.46-3.172-2.871-7.928-3.371-11.644-1.284-4.355 2.446-6.201 7.914-4.312 12.521z"/><path d="m450.6 285.78c-2.065-5.038-8.04-7.494-13.06-5.41-5.032 2.089-7.497 8.021-5.41 13.06 2.083 5.029 8.031 7.498 13.06 5.41 5.021-2.084 7.504-8.032 5.41-13.06z"/><path d="m289.6 260.87c-7.512-5.01-17.554 2.216-15.204 10.909 1.076 3.981 4.572 6.938 8.675 7.36 4.425.455 8.698-2.233 10.298-6.356 1.675-4.32.068-9.332-3.769-11.913z"/><path d="m337.627 218.788c-6.904 12.607-10.835 27.065-10.835 42.425 0 48.861 39.751 88.613 88.613 88.613s88.613-39.752 88.613-88.613c0-15.25-3.991-30.434-11.513-43.707l-60.569-106.843 10.265.001c32.806 0 39.99-25.937 39.99-35.931 0-5.523-4.477-10-10-10s-10 4.477-10 10c0 4.28-2.307 8.993-5.541 11.736-3.961 3.359-9.417 4.195-14.448 4.195-12.659 0-19.466-.001-23.125-.002-16.204-16.543-35.537-27.164-56.159-30.803-20.173-3.559-40.626-.302-59.482 9.389-.019-.007-.038-.015-.057-.023v-15.47c0-2.18-.712-4.301-2.029-6.039-4.313-5.689-16.62-24.833-16.62-37.716 0-5.523-4.477-10-10-10h-32.703c-5.523 0-10 4.477-10 10 0 12.875-12 31.597-16.619 37.717-1.317 1.738-2.029 3.859-2.029 6.039v15.47c-13.498 5.165-23.111 18.247-23.111 33.539v.038c-34.25-9.97-70.448.318-98.034 28.462-3.664.001-10.472.002-23.127.002-18.169 0-19.894-12.286-19.99-16.051 0 0 0 .069 0 .043 0-5.488-4.478-9.937-9.965-9.937s-10.035 4.449-10.035 9.937v.077c0 9.994 7.184 35.931 39.99 35.931l10.265-.001-60.57 106.843c-7.236 12.765-10.821 28.08-10.821 42.682 0 48.861 39.752 88.613 88.613 88.613s88.613-39.752 88.613-88.613c0-14.729-3.652-29.825-10.941-42.682l-65.328-115.238c23.983-22.982 54.083-29.777 82.459-18.557 3.707 14.398 16.147 25.325 31.31 26.783v240.067h-15.829c-5.523 0-10 4.477-10 10v26.835h-3.319c-24.185 0-43.86 19.675-43.86 43.86v20.141h-69.362c-5.523 0-10 4.477-10 10s4.477 10 10 10h358.398c5.523 0 10-4.477 10-10s-4.477-10-10-10h-69.091v-20.141c0-24.185-19.675-43.86-43.86-43.86h-6.229v-26.835c0-5.523-4.477-10-10-10h-15.505v-77.22c0-5.523-4.477-10-10-10s-10 4.477-10 10v77.22h-31.343v-239.896h31.343v74.114c0 5.523 4.477 10 10 10s10-4.477 10-10v-74.285c18.177-1.748 32.439-17.104 32.439-35.732v-12.601c0-7.142-2.105-13.798-5.714-19.396 27.922-10.643 57.862-3.818 81.633 18.95l-64.49 115.878c-.108.196-.197.395-.291.592zm-172.419 82.003c0 37.833-30.78 68.613-68.613 68.613s-68.613-30.78-68.613-68.613 30.78-68.613 68.613-68.613c37.833-.001 68.613 30.779 68.613 68.613zm-36.57-82.616c-9.943-3.87-20.749-5.998-32.043-5.998-11.353 0-22.212 2.149-32.197 6.056l32.137-56.689zm104.741-161.179c4.423-6.315 14.179-21.511 17.508-36.996h14.982c3.33 15.484 13.085 30.681 17.508 36.996v9.868h-49.999v-9.868zm92.406 391.003c13.156 0 23.86 10.704 23.86 23.86v20.141h-179.946v-20.141c0-13.156 10.704-23.86 23.86-23.86zm-26.229-36.835v16.835h-82.677v-16.835zm6.933-295.798c0 8.769-7.133 15.902-15.902 15.902h-64.418c-8.769 0-15.902-7.133-15.902-15.902v-12.601c0-8.769 7.133-15.902 15.902-15.902h64.418c8.769 0 15.902 7.133 15.902 15.902zm108.365 5.718 32.607 57.519c-9.946-3.873-20.757-6.003-32.056-6.003-11.545 0-22.58 2.222-32.704 6.256zm.551 71.516c37.833 0 68.613 30.78 68.613 68.613s-30.78 68.613-68.613 68.613-68.613-30.78-68.613-68.613 30.78-68.613 68.613-68.613z"/></g></g></svg>