<svg xmlns="http://www.w3.org/2000/svg" width="10" height="18" viewBox="0 0 10 18">
  <defs>
    <style>
      .cls-1 {
        fill: #003266;
        fill-rule: evenodd;
      }
    </style>
  </defs>
  <path class="cls-1" d="M4417.93,746.885a4.572,4.572,0,0,1-3.08,1.113h-0.13c-3.97,0-4.83-3.122-4.83-4.944v-5.062h-1.56a0.342,0.342,0,0,1-.33-0.351h0V735.25a0.6,0.6,0,0,1,.37-0.561,4.463,4.463,0,0,0,2.77-4.116,0.52,0.52,0,0,1,.53-0.574H4414a0.342,0.342,0,0,1,.33.351V734.4h2.73a0.341,0.341,0,0,1,.33.35v2.873a0.342,0.342,0,0,1-.33.35h-2.74v4.682a1.271,1.271,0,0,0,1.17,1.5,3.071,3.071,0,0,0,1.06-.242,0.68,0.68,0,0,1,.42-0.079,0.35,0.35,0,0,1,.24.277l0.73,2.26A0.522,0.522,0,0,1,4417.93,746.885Z" transform="translate(-4408 -730)"/>
</svg>
