<svg xmlns="http://www.w3.org/2000/svg" width="20" height="10.969" viewBox="0 0 20 10.969">
  <defs>
    <style>
      .cls-1 {
        fill: #003266;
        fill-rule: evenodd;
      }
    </style>
  </defs>
  <path class="cls-1" d="M4307.79,744.838h1.19a1.061,1.061,0,0,0,.55-0.228,0.787,0.787,0,0,0,.16-0.5s-0.02-1.531.72-1.757,1.68,1.48,2.68,2.134a1.963,1.963,0,0,0,1.33.387l2.67-.036s1.4-.082.73-1.13a8.361,8.361,0,0,0-1.98-2.193c-1.68-1.483-1.45-1.243.56-3.809,1.23-1.562,1.72-2.516,1.57-2.924a1.206,1.206,0,0,0-1.05-.287l-3.01.018a0.723,0.723,0,0,0-.39.065,0.793,0.793,0,0,0-.26.308,16.862,16.862,0,0,1-1.11,2.237c-1.34,2.17-1.88,2.285-2.1,2.15-0.51-.314-0.38-1.261-0.38-1.934,0-2.1.34-2.98-.65-3.207a5.411,5.411,0,0,0-1.4-.133,6.8,6.8,0,0,0-2.5.244c-0.34.16-.6,0.516-0.44,0.536a1.38,1.38,0,0,1,.88.426,2.65,2.65,0,0,1,.3,1.3s0.18,2.475-.41,2.783c-0.41.211-.96-0.22-2.16-2.188a17.872,17.872,0,0,1-1.07-2.123,0.861,0.861,0,0,0-.25-0.32,1.261,1.261,0,0,0-.46-0.178l-2.86.018a1.023,1.023,0,0,0-.59.19,0.567,0.567,0,0,0-.01.485s2.24,5,4.77,7.512a7.071,7.071,0,0,0,4.97,2.156h0Z" transform="translate(-4298 -734)"/>
</svg>
